<?xml version="1.0" standalone="no"?>
<!DOCTYPE svg PUBLIC "-//W3C//DTD SVG 20010904//EN"
 "http://www.w3.org/TR/2001/REC-SVG-20010904/DTD/svg10.dtd">
<svg version="1.0" xmlns="http://www.w3.org/2000/svg"
 width="1240.000000pt" height="1240.000000pt" viewBox="0 0 1240.000000 1240.000000"
 preserveAspectRatio="xMidYMid meet">
<metadata>
Created by potrace 1.14, written by Peter Selinger 2001-2017
</metadata>
<g transform="translate(0.000000,1240.000000) scale(0.100000,-0.100000)"
fill="#000000" stroke="none">
<path d="M0 9906 c0 -58 3 -106 8 -107 4 0 36 -2 72 -4 57 -4 218 -22 260 -30
183 -35 306 -107 364 -211 28 -51 64 -158 71 -214 3 -19 7 -46 10 -58 17 -87
20 -501 20 -2857 0 -2330 -4 -2861 -19 -2941 -2 -11 -7 -46 -10 -76 -46 -435
-190 -637 -521 -737 -95 -29 -243 -60 -249 -53 -3 3 -6 -45 -6 -107 l0 -113
57 6 c269 29 1619 30 1975 0 l67 -5 -2 107 c-2 99 -4 107 -22 110 -11 1 -56 8
-100 14 -108 14 -291 56 -384 87 -309 104 -456 305 -496 683 -4 30 -8 62 -10
70 -2 8 -7 53 -10 100 -3 47 -8 114 -11 150 -8 92 -12 5582 -4 5573 4 -5 28
-60 55 -123 26 -63 65 -155 85 -205 21 -49 61 -146 90 -215 29 -69 58 -138 65
-155 7 -16 84 -199 170 -405 86 -206 163 -388 170 -405 8 -16 55 -129 105
-250 50 -121 100 -239 111 -262 10 -24 19 -45 19 -48 0 -3 9 -24 19 -48 11
-23 61 -141 112 -262 89 -214 171 -411 358 -860 51 -121 98 -233 106 -250 17
-39 141 -333 170 -405 12 -30 29 -71 37 -90 20 -45 76 -179 129 -305 22 -55
47 -113 54 -130 8 -16 30 -70 50 -120 21 -49 43 -103 50 -120 8 -16 32 -75 55
-130 23 -55 47 -113 54 -130 8 -16 42 -97 76 -180 34 -82 68 -164 75 -180 8
-17 73 -172 145 -345 72 -173 137 -328 145 -345 8 -16 99 -232 201 -480 103
-247 189 -452 191 -454 6 -8 167 -1 174 7 4 4 28 63 54 132 26 69 64 170 85
225 21 55 114 296 205 535 92 239 177 462 190 495 13 33 71 186 130 340 58
154 117 307 130 340 13 33 42 110 65 170 23 61 52 137 65 170 13 33 46 121 74
195 28 74 55 144 60 155 5 11 37 94 71 185 63 168 106 279 121 315 5 11 37 97
73 190 141 372 477 1251 487 1274 5 13 30 78 55 145 25 66 63 166 85 221 21
55 97 253 169 440 l130 340 -2 320 c-3 308 -4 318 -19 275 -9 -25 -52 -139
-97 -255 -44 -115 -123 -325 -177 -465 -53 -140 -112 -293 -130 -340 -18 -47
-149 -388 -290 -758 -141 -370 -260 -683 -265 -695 -9 -20 -77 -201 -356 -937
-57 -151 -108 -284 -113 -295 -5 -11 -21 -54 -36 -95 -15 -41 -33 -88 -40
-105 -7 -16 -21 -52 -31 -78 -9 -26 -20 -44 -25 -40 -4 4 -55 125 -114 268
-196 474 -235 570 -245 590 -5 11 -25 58 -44 105 -39 97 -422 1024 -435 1055
-21 48 -43 100 -111 265 -40 96 -94 227 -120 290 -36 85 -727 1754 -810 1955
-7 17 -23 54 -36 83 -13 29 -24 58 -24 65 0 7 -4 17 -8 22 -5 6 -15 26 -22 45
-7 19 -23 58 -35 85 -12 28 -52 126 -91 218 l-69 169 -220 -6 c-121 -3 -337
-9 -480 -13 -366 -9 -1315 -10 -1530 0 -99 4 -231 10 -292 13 l-113 5 0 -105z"/>
<path d="M5860 9899 l0 -109 48 -1 c187 -4 391 -42 497 -94 28 -13 72 -45 99
-72 72 -70 101 -137 141 -334 17 -81 20 -596 20 -3089 0 -2526 -3 -2979 -19
-3065 -2 -11 -7 -40 -11 -65 -27 -183 -108 -306 -236 -364 -89 -41 -324 -82
-514 -90 l-30 -1 0 -110 0 -110 35 1 c19 1 94 4 165 8 528 26 2033 26 2790 -1
393 -14 958 -8 1125 12 19 3 62 7 95 10 33 3 76 7 95 10 19 3 51 7 70 9 43 6
167 25 198 31 47 10 78 16 100 20 12 2 30 6 40 9 9 3 28 7 42 10 14 2 68 15
120 29 528 141 937 371 1225 689 219 241 374 576 421 913 15 111 19 180 18
335 -1 189 -18 300 -71 465 -24 76 -106 254 -155 340 -94 162 -244 329 -418
463 -30 23 -59 45 -65 50 -95 73 -353 216 -515 285 -257 109 -636 210 -943
252 -17 2 -48 6 -67 9 -42 6 -121 16 -175 22 -22 2 -58 6 -80 9 -92 10 -181
18 -197 17 -10 0 -18 5 -18 12 0 8 27 18 73 26 102 18 364 85 477 121 523 170
936 433 1217 774 99 120 103 124 103 130 0 3 16 30 36 60 108 169 207 427 231
604 10 71 10 340 0 406 -15 97 -70 293 -96 343 -5 9 -21 40 -34 68 -36 72 -65
122 -100 174 -67 97 -214 253 -303 322 -16 13 -38 31 -49 41 -23 21 -156 110
-230 154 -224 131 -642 266 -955 308 -45 6 -124 17 -148 20 -13 2 -53 7 -90
10 -37 4 -83 8 -102 11 -170 19 -645 23 -1360 9 -766 -15 -1569 -8 -2402 19
l-98 3 0 -108z m3395 -124 c300 -49 511 -207 648 -487 135 -275 192 -603 191
-1088 0 -276 -11 -420 -49 -632 -3 -16 -7 -39 -9 -52 -3 -14 -19 -80 -36 -148
-70 -273 -167 -461 -323 -625 -154 -162 -305 -238 -567 -288 -65 -12 -218 -18
-464 -19 l-269 0 1 1284 c1 1181 3 1406 17 1513 3 20 8 56 11 80 10 76 45 199
71 251 54 107 172 181 333 209 107 18 340 20 445 2z m-190 -3529 c100 -7 120
-9 206 -20 39 -5 144 -24 216 -40 133 -29 291 -87 411 -153 306 -166 524 -458
637 -854 18 -63 21 -77 46 -214 36 -194 43 -630 15 -840 -3 -16 -7 -52 -10
-80 -4 -27 -8 -61 -10 -75 -3 -14 -7 -41 -10 -60 -8 -56 -45 -209 -67 -280
-127 -405 -346 -690 -644 -837 -97 -48 -231 -95 -315 -110 -14 -2 -41 -8 -60
-13 -140 -36 -603 -33 -740 5 -3 1 -18 5 -35 10 -104 28 -193 106 -240 210
-45 98 -66 204 -80 405 -5 63 -10 2766 -6 2930 l1 25 292 -1 c161 -1 338 -5
393 -8z"/>
</g>
</svg>
